HIERARCHY
ROOT Hips
{
	OFFSET 0.00000 0.00000 0.00000
	CHANNELS 6 Xposition Yposition Zposition Zrotation Yrotation Xrotation 
	JOINT LHipJoint
	{
		OFFSET 0 0 0
		CHANNELS 3 Zrotation Yrotation Xrotation
		JOINT LeftHip
		{
			OFFSET 1.88772 -1.62769 0.85636
			CHANNELS 3 Zrotation Yrotation Xrotation
			JOINT LeftKnee
			{
				OFFSET 2.39836 -6.58946 0.00000
				CHANNELS 3 Zrotation Yrotation Xrotation
				JOINT LeftAnkle
				{
					OFFSET 2.78523 -7.65237 0.00000
					CHANNELS 3 Zrotation Yrotation Xrotation
					JOINT LeftToe
					{
						OFFSET 0.19551 -0.53715 1.90694
						CHANNELS 3 Zrotation Yrotation Xrotation
						End Site
						{
							OFFSET 0.00000 -0.00000 0.99735
						}
					}
				}
			}
		}
	}
	JOINT RHipJoint
	{
		OFFSET 0 0 0
		CHANNELS 3 Zrotation Yrotation Xrotation
		JOINT RightHip
		{
			OFFSET -1.74282 -1.62769 0.85636
			CHANNELS 3 Zrotation Yrotation Xrotation
			JOINT RightKnee
			{
				OFFSET -2.36062 -6.48575 0.00000
				CHANNELS 3 Zrotation Yrotation Xrotation
				JOINT RightAnkle
				{
					OFFSET -2.76258 -7.59014 0.00000
					CHANNELS 3 Zrotation Yrotation Xrotation
					JOINT RightToe
					{
						OFFSET -0.19308 -0.53048 2.03952
						CHANNELS 3 Zrotation Yrotation Xrotation
						End Site
						{
							OFFSET -0.00000 -0.00000 1.06031
						}
					}
				}
			}
		}
	}
	JOINT lowerback
	{
		OFFSET 0 0 0
		CHANNELS 3 Zrotation Yrotation Xrotation
		JOINT Chest
		{
			OFFSET -0.08299 2.03160 -0.30721
			CHANNELS 3 Zrotation Yrotation Xrotation
			JOINT Chest2
			{
				OFFSET -0.01030 2.00603 0.13891
				CHANNELS 3 Zrotation Yrotation Xrotation
				JOINT lowerneck
				{
					OFFSET 0 0 0
					CHANNELS 3 Zrotation Yrotation Xrotation
					JOINT Neck
					{
						OFFSET 0.04282 1.69578 0.19991
						CHANNELS 3 Zrotation Yrotation Xrotation
						JOINT Head
						{
							OFFSET -0.08665 1.66622 -0.03785
							CHANNELS 3 Zrotation Yrotation Xrotation
							End Site
							{
								OFFSET -0.03699 1.83329 -0.04094
							}
						}
					}
				}
				JOINT LeftCollar
				{
					OFFSET 0 0 0
					CHANNELS 3 Zrotation Yrotation Xrotation
					JOINT LeftShoulder
					{
						OFFSET 3.04219 1.50803 -0.05347
CHANNELS 3 Zrotation Xrotation Yrotation
						JOINT LeftElbow
						{
OFFSET 0 -5.791990 0.000000
CHANNELS 3 Zrotation Xrotation Yrotation
							JOINT LeftWrist
							{
OFFSET 0 -3.499080 0.000000
CHANNELS 3 Zrotation Xrotation Yrotation
								JOINT lhand
								{
									OFFSET 0 0 0
CHANNELS 3 Zrotation Xrotation Yrotation
									JOINT LFingers
									{
OFFSET 0 -0.593860 0.000000
CHANNELS 3 Zrotation Xrotation Yrotation
										End Site
										{
OFFSET 0 -0.478790 0.000000
										}
									}
								}
								JOINT LThumb
								{
OFFSET 0 0.000000 0.000000
CHANNELS 3 Zrotation Xrotation Yrotation
									End Site
									{
OFFSET 0 -0.486100 0.486100
									}
								}
							}
						}
					}
				}
				JOINT RightCollar
				{
					OFFSET 0 0 0
					CHANNELS 3 Zrotation Yrotation Xrotation
					JOINT RightShoulder
					{
						OFFSET -3.30316 1.18853 0.11175
CHANNELS 3 Zrotation Xrotation Yrotation
						JOINT RightElbow
						{
OFFSET 0 -5.737990 0.000000
CHANNELS 3 Zrotation Xrotation Yrotation
							JOINT RightWrist
							{
OFFSET 0 -3.579160 -0.000000
CHANNELS 3 Zrotation Xrotation Yrotation
								JOINT rhand
								{
									OFFSET 0 0 0
CHANNELS 3 Zrotation Xrotation Yrotation
									JOINT RFingers
									{
OFFSET 0 -0.615580 0.000000
CHANNELS 3 Zrotation Xrotation Yrotation
										End Site
										{
OFFSET 0 -0.496290 0.000000
										}
									}
								}
								JOINT RThumb
								{
OFFSET 0 0.000000 0.000000
CHANNELS 3 Zrotation Xrotation Yrotation
									End Site
									{
OFFSET 0 -0.503870 0.503870
									}
								}
							}
						}
					}
				}
			}
		}
	}
}
MOTION
Frames: 7
Frame Time: 0.008333333333333333
16.435200 17.476700 -11.788600 151.210000 -81.709600 -143.204000 0.000000 0.000000 0.000000 -7.362800 -14.673100 -24.010200 2.763500 10.302000 29.960500 0.310900 4.505200 -13.167500 0.472900 4.410600 12.234800 0.000000 0.000000 0.000000 23.491800 6.057800 -11.390000 -2.020600 -8.908800 25.510400 -0.816600 -14.453200 -27.718900 -0.020600 0.925700 -2.544500 -0.480900 0.991100 1.835600 -0.238100 1.279500 -2.621500 -0.039700 0.639100 -3.729700 8.056700 10.526000 -2.560700 -10.611100 13.988700 0.010400 -3.979500 6.884100 1.740400 0.000000 0.000000 0.000000 7.878100 22.477700 -25.214600 13.884300 -22.569000 2.783500 6.647900 -20.459700 20.096800 0.000000 0.000000 0.000000 -7.125000 0.000000 0.000000 -13.946900 10.215500 -11.610900 0.000000 0.000000 0.000000 -8.869000 18.594600 30.964100 -16.985800 -26.839000 -4.080900 -15.241000 0.967800 28.668500 0.000000 0.000000 0.000000 7.125000 0.000000 -0.000000 17.485800 58.656300 -5.954200
16.126301 17.582670 -11.533376 154.384262 -80.222141 -146.270856 0.000000 0.000000 0.000000 -4.305216 -17.720716 -22.200343 2.342648 9.545867 27.518429 0.317881 8.573755 -16.899639 2.525926 9.771273 28.339459 0.000000 0.000000 0.000000 22.171186 6.084261 -8.182643 -1.464217 -7.646535 21.645920 -0.748692 -14.405316 -27.163565 -0.009818 0.639707 -1.757847 -1.001449 1.257021 1.634685 -0.577676 1.617102 -2.122349 -0.102092 0.816540 -3.106661 7.426873 9.783109 -2.819264 -9.547145 12.885821 -1.232108 -4.046593 6.357643 1.318886 0.000000 0.000000 0.000000 10.316709 26.839223 -21.948479 12.024840 -19.841760 2.110787 3.236394 -15.809872 18.337169 0.000000 0.000000 0.000000 -7.125000 0.000000 0.000000 -16.169328 12.138676 -12.946684 0.000000 0.000000 0.000000 -8.725899 21.141035 23.919308 -14.269432 -23.118616 -2.933097 -15.629452 4.830357 29.105852 0.000000 0.000000 0.000000 7.125000 0.000000 0.000000 17.371746 59.161582 -6.125613
15.779870 17.519926 -11.178892 160.961790 -79.836185 -152.985098 0.000000 0.000000 0.000000 -3.945629 -13.309419 -23.029829 2.419351 9.689474 27.977078 0.000543 5.687836 -8.158883 0.032545 1.160316 3.190035 0.000000 0.000000 0.000000 22.094997 8.558039 -6.706131 -1.669000 -8.139646 23.139075 -0.919964 -15.906766 -29.928282 -0.032648 1.130003 -3.107013 -1.534814 0.799439 1.799832 -0.201223 1.001571 -1.962938 0.609016 0.526635 -3.047812 7.134536 9.857009 -2.770445 -9.235761 12.983441 -1.342723 -3.887555 6.410831 1.233927 0.000000 0.000000 0.000000 11.419468 29.314126 -14.704781 10.792245 -17.969072 1.711347 5.992676 -13.071862 18.070839 0.000000 0.000000 0.000000 -7.125000 0.000000 0.000000 -14.414739 12.232492 -11.409156 0.000000 0.000000 0.000000 -10.363271 23.345638 20.840967 -12.283318 -20.228060 -2.199294 -16.647127 7.554142 29.542267 0.000000 0.000000 0.000000 7.125000 0.000000 0.000000 16.587331 59.814254 -6.098697
15.355132 17.524324 -10.641067 163.688210 -78.189039 -156.080247 0.000000 0.000000 0.000000 -7.518566 -10.766618 -21.739012 2.894951 10.523099 30.687767 0.409764 1.703322 -12.825583 0.372343 3.884065 10.754528 0.000000 0.000000 0.000000 19.858502 8.316125 -5.416053 -1.695162 -8.200055 23.323420 -0.586078 -16.207793 -27.898595 -0.420702 4.161372 -11.531282 -1.856959 1.009290 1.325786 -0.939730 1.254725 -2.029774 0.028080 0.647039 -2.846074 7.125546 9.789752 -2.071725 -8.966742 12.911348 -1.646575 -3.845621 6.396402 0.982085 0.000000 0.000000 0.000000 13.673973 29.477707 -18.864645 12.593240 -20.688122 2.307675 7.686778 -13.853739 16.831456 0.000000 0.000000 0.000000 -7.125000 0.000000 0.000000 -13.351504 13.329850 -10.200699 0.000000 0.000000 0.000000 -9.609200 24.143883 17.246441 -11.631766 -19.250107 -1.979229 -18.211420 11.335630 30.971443 0.000000 0.000000 0.000000 7.125000 0.000000 0.000000 15.915308 61.565948 -6.509045
14.939787 17.518846 -10.004593 165.830237 -77.280876 -157.752060 0.000000 0.000000 0.000000 -11.246270 -9.651847 -20.400838 2.667086 10.135520 29.416711 0.845775 2.710325 -18.555174 0.309824 3.440341 9.522820 0.000000 0.000000 0.000000 17.498529 9.684426 -4.275685 -1.679458 -8.163708 23.212552 -0.599885 -16.249970 -28.047184 -0.585367 4.882343 -13.576561 -2.711371 1.064495 0.456136 -1.570569 1.280631 -2.670514 -0.134458 0.665939 -3.024575 7.716078 9.775295 -2.000733 -8.706393 12.925075 -0.954952 -3.847381 6.404596 1.219844 0.000000 0.000000 0.000000 13.499824 26.119329 -21.136886 16.516669 -26.215762 3.871590 9.996797 -20.198538 17.773883 0.000000 0.000000 0.000000 -7.125000 0.000000 0.000000 -11.823755 12.232622 -9.254187 0.000000 0.000000 0.000000 -8.252777 23.377807 20.764142 -12.562742 -20.643016 -2.296942 -16.819159 6.997428 29.543105 0.000000 0.000000 0.000000 7.125000 0.000000 0.000000 16.403403 59.855093 -6.045419
14.692105 17.610350 -9.390087 163.542888 -78.311028 -154.824791 0.000000 0.000000 0.000000 -13.598481 -10.735552 -20.373432 2.596171 10.010666 29.011302 0.928695 1.260194 -18.703157 0.647939 5.149154 14.334550 0.000000 0.000000 0.000000 14.690404 8.943981 -5.535199 -1.826859 -8.495762 24.230230 -0.212706 -16.708300 -25.563095 -0.798801 5.684869 -15.877999 -5.099489 0.723976 0.580268 -1.836795 0.727526 -2.935053 0.937133 0.447099 -3.397522 7.281292 9.727185 -2.312720 -8.479918 12.863724 -0.616196 -3.670576 6.367333 1.328898 0.000000 0.000000 0.000000 11.857341 19.615582 -26.359944 24.423062 -35.602362 7.954119 12.736839 -27.270450 20.306756 0.000000 0.000000 0.000000 -7.125000 0.000000 0.000000 -10.072394 9.457958 -8.415298 0.000000 0.000000 0.000000 -6.252567 22.032568 26.508505 -15.858998 -25.328877 -3.585538 -16.181932 1.701761 29.730015 0.000000 0.000000 0.000000 7.125000 0.000000 0.000000 17.219959 59.885200 -6.370840
14.527347 17.703433 -8.732198 163.991247 -78.807173 -154.277469 0.000000 0.000000 0.000000 -15.648850 -11.982495 -21.078800 2.554066 9.935586 28.768294 0.968959 1.435611 -19.167459 0.753932 5.543342 15.465638 0.000000 0.000000 0.000000 11.934059 7.422396 -8.804838 -2.145354 -9.162394 26.304794 0.152085 -16.246644 -21.510006 -1.023672 6.436333 -18.055794 -5.700058 0.978152 1.210308 -2.340047 0.930313 -3.536861 0.724146 0.576121 -4.401555 6.600148 9.308562 -3.132095 -7.458817 12.319636 0.632939 -3.165246 6.083296 1.705839 0.000000 0.000000 0.000000 11.100971 14.415140 -32.426518 36.330442 -45.736663 15.759483 14.023286 -31.679609 21.776392 0.000000 0.000000 0.000000 -7.125000 0.000000 0.000000 -9.302675 7.839899 -8.056308 0.000000 0.000000 0.000000 -5.194941 21.278900 33.274100 -19.951822 -30.583871 -5.507005 -14.997404 -0.761235 27.154989 0.000000 0.000000 0.000000 7.125000 0.000000 0.000000 16.778888 57.151839 -5.093555
